<mxfile host="Electron" agent="Mozilla/5.0 (Windows NT 10.0; Win64; x64) AppleWebKit/537.36 (KHTML, like Gecko) draw.io/27.0.2 Chrome/134.0.6998.205 Electron/35.3.0 Safari/537.36" version="27.0.2">
  <diagram name="Page-1" id="Db_boxqU200qbfz2Yd_o">
    <mxGraphModel dx="1426" dy="841" grid="1" gridSize="10" guides="1" tooltips="1" connect="1" arrows="1" fold="1" page="1" pageScale="1" pageWidth="827" pageHeight="1169" math="0" shadow="0">
      <root>
        <mxCell id="0" />
        <mxCell id="1" parent="0" />
        <mxCell id="4eVBK96cGTDbWKvktmTu-1" value="" style="edgeStyle=orthogonalEdgeStyle;rounded=0;orthogonalLoop=1;jettySize=auto;html=1;" parent="1" source="4eVBK96cGTDbWKvktmTu-7" target="4eVBK96cGTDbWKvktmTu-9" edge="1">
          <mxGeometry relative="1" as="geometry" />
        </mxCell>
        <mxCell id="4eVBK96cGTDbWKvktmTu-2" style="edgeStyle=orthogonalEdgeStyle;rounded=0;orthogonalLoop=1;jettySize=auto;html=1;entryX=0;entryY=0.5;entryDx=0;entryDy=0;" parent="1" source="4eVBK96cGTDbWKvktmTu-7" target="4eVBK96cGTDbWKvktmTu-16" edge="1">
          <mxGeometry relative="1" as="geometry" />
        </mxCell>
        <mxCell id="4eVBK96cGTDbWKvktmTu-3" style="edgeStyle=orthogonalEdgeStyle;rounded=0;orthogonalLoop=1;jettySize=auto;html=1;entryX=0;entryY=0.5;entryDx=0;entryDy=0;" parent="1" source="4eVBK96cGTDbWKvktmTu-7" target="4eVBK96cGTDbWKvktmTu-34" edge="1">
          <mxGeometry relative="1" as="geometry" />
        </mxCell>
        <mxCell id="4eVBK96cGTDbWKvktmTu-4" style="edgeStyle=orthogonalEdgeStyle;rounded=0;orthogonalLoop=1;jettySize=auto;html=1;entryX=1;entryY=0.5;entryDx=0;entryDy=0;" parent="1" source="4eVBK96cGTDbWKvktmTu-7" target="4eVBK96cGTDbWKvktmTu-49" edge="1">
          <mxGeometry relative="1" as="geometry" />
        </mxCell>
        <mxCell id="4eVBK96cGTDbWKvktmTu-5" style="edgeStyle=orthogonalEdgeStyle;rounded=0;orthogonalLoop=1;jettySize=auto;html=1;entryX=1;entryY=0.5;entryDx=0;entryDy=0;" parent="1" source="4eVBK96cGTDbWKvktmTu-7" target="4eVBK96cGTDbWKvktmTu-58" edge="1">
          <mxGeometry relative="1" as="geometry" />
        </mxCell>
        <mxCell id="4eVBK96cGTDbWKvktmTu-6" style="edgeStyle=orthogonalEdgeStyle;rounded=0;orthogonalLoop=1;jettySize=auto;html=1;entryX=1;entryY=0.5;entryDx=0;entryDy=0;" parent="1" source="4eVBK96cGTDbWKvktmTu-7" target="4eVBK96cGTDbWKvktmTu-79" edge="1">
          <mxGeometry relative="1" as="geometry" />
        </mxCell>
        <mxCell id="4eVBK96cGTDbWKvktmTu-7" value="Django Setup" style="rounded=0;whiteSpace=wrap;html=1;fillColor=#008a00;strokeColor=#005700;fontColor=#ffffff;" parent="1" vertex="1">
          <mxGeometry x="830" y="50" width="120" height="60" as="geometry" />
        </mxCell>
        <mxCell id="4eVBK96cGTDbWKvktmTu-106" value="" style="edgeStyle=orthogonalEdgeStyle;rounded=0;orthogonalLoop=1;jettySize=auto;html=1;" parent="1" source="4eVBK96cGTDbWKvktmTu-9" target="4eVBK96cGTDbWKvktmTu-105" edge="1">
          <mxGeometry relative="1" as="geometry" />
        </mxCell>
        <mxCell id="4eVBK96cGTDbWKvktmTu-9" value="Data Tracking" style="whiteSpace=wrap;html=1;rounded=0;fillColor=#0050ef;strokeColor=#001DBC;fontColor=#ffffff;" parent="1" vertex="1">
          <mxGeometry x="1030" y="50" width="120" height="60" as="geometry" />
        </mxCell>
        <mxCell id="4eVBK96cGTDbWKvktmTu-10" value="" style="edgeStyle=orthogonalEdgeStyle;rounded=0;orthogonalLoop=1;jettySize=auto;html=1;" parent="1" source="4eVBK96cGTDbWKvktmTu-12" target="4eVBK96cGTDbWKvktmTu-13" edge="1">
          <mxGeometry relative="1" as="geometry" />
        </mxCell>
        <mxCell id="4eVBK96cGTDbWKvktmTu-104" style="edgeStyle=orthogonalEdgeStyle;rounded=0;orthogonalLoop=1;jettySize=auto;html=1;entryX=0.5;entryY=0;entryDx=0;entryDy=0;" parent="1" source="4eVBK96cGTDbWKvktmTu-12" target="4eVBK96cGTDbWKvktmTu-40" edge="1">
          <mxGeometry relative="1" as="geometry" />
        </mxCell>
        <mxCell id="4eVBK96cGTDbWKvktmTu-12" value="Manual data entry" style="whiteSpace=wrap;html=1;rounded=0;fillColor=#008a00;fontColor=#ffffff;strokeColor=#005700;" parent="1" vertex="1">
          <mxGeometry x="1370" y="50" width="120" height="60" as="geometry" />
        </mxCell>
        <mxCell id="4eVBK96cGTDbWKvktmTu-13" value="Data entry from APIs (very low priority)" style="whiteSpace=wrap;html=1;rounded=0;fillColor=#a20025;strokeColor=#6F0000;fontColor=#ffffff;" parent="1" vertex="1">
          <mxGeometry x="1560" y="50" width="120" height="60" as="geometry" />
        </mxCell>
        <mxCell id="4eVBK96cGTDbWKvktmTu-14" value="" style="edgeStyle=orthogonalEdgeStyle;rounded=0;orthogonalLoop=1;jettySize=auto;html=1;" parent="1" source="4eVBK96cGTDbWKvktmTu-16" target="4eVBK96cGTDbWKvktmTu-28" edge="1">
          <mxGeometry relative="1" as="geometry" />
        </mxCell>
        <mxCell id="4eVBK96cGTDbWKvktmTu-15" value="" style="edgeStyle=orthogonalEdgeStyle;rounded=0;orthogonalLoop=1;jettySize=auto;html=1;" parent="1" source="4eVBK96cGTDbWKvktmTu-16" target="4eVBK96cGTDbWKvktmTu-100" edge="1">
          <mxGeometry relative="1" as="geometry" />
        </mxCell>
        <mxCell id="4eVBK96cGTDbWKvktmTu-16" value="Statistic Analysis" style="rounded=0;whiteSpace=wrap;html=1;" parent="1" vertex="1">
          <mxGeometry x="1030" y="400" width="120" height="60" as="geometry" />
        </mxCell>
        <mxCell id="4eVBK96cGTDbWKvktmTu-17" value="" style="edgeStyle=orthogonalEdgeStyle;rounded=0;orthogonalLoop=1;jettySize=auto;html=1;" parent="1" source="4eVBK96cGTDbWKvktmTu-23" target="4eVBK96cGTDbWKvktmTu-26" edge="1">
          <mxGeometry relative="1" as="geometry" />
        </mxCell>
        <mxCell id="4eVBK96cGTDbWKvktmTu-18" style="edgeStyle=orthogonalEdgeStyle;rounded=0;orthogonalLoop=1;jettySize=auto;html=1;entryX=0.5;entryY=0;entryDx=0;entryDy=0;" parent="1" source="4eVBK96cGTDbWKvktmTu-23" target="4eVBK96cGTDbWKvktmTu-66" edge="1">
          <mxGeometry relative="1" as="geometry" />
        </mxCell>
        <mxCell id="4eVBK96cGTDbWKvktmTu-19" style="edgeStyle=orthogonalEdgeStyle;rounded=0;orthogonalLoop=1;jettySize=auto;html=1;entryX=0.5;entryY=0;entryDx=0;entryDy=0;" parent="1" source="4eVBK96cGTDbWKvktmTu-23" target="4eVBK96cGTDbWKvktmTu-68" edge="1">
          <mxGeometry relative="1" as="geometry" />
        </mxCell>
        <mxCell id="4eVBK96cGTDbWKvktmTu-20" style="edgeStyle=orthogonalEdgeStyle;rounded=0;orthogonalLoop=1;jettySize=auto;html=1;entryX=0.5;entryY=0;entryDx=0;entryDy=0;" parent="1" source="4eVBK96cGTDbWKvktmTu-23" target="4eVBK96cGTDbWKvktmTu-70" edge="1">
          <mxGeometry relative="1" as="geometry" />
        </mxCell>
        <mxCell id="4eVBK96cGTDbWKvktmTu-21" style="edgeStyle=orthogonalEdgeStyle;rounded=0;orthogonalLoop=1;jettySize=auto;html=1;entryX=0.5;entryY=0;entryDx=0;entryDy=0;" parent="1" source="4eVBK96cGTDbWKvktmTu-23" target="4eVBK96cGTDbWKvktmTu-72" edge="1">
          <mxGeometry relative="1" as="geometry">
            <Array as="points">
              <mxPoint x="1240" y="800" />
              <mxPoint x="1390" y="800" />
            </Array>
          </mxGeometry>
        </mxCell>
        <mxCell id="4eVBK96cGTDbWKvktmTu-22" style="edgeStyle=orthogonalEdgeStyle;rounded=0;orthogonalLoop=1;jettySize=auto;html=1;entryX=0.5;entryY=0;entryDx=0;entryDy=0;" parent="1" source="4eVBK96cGTDbWKvktmTu-23" target="4eVBK96cGTDbWKvktmTu-74" edge="1">
          <mxGeometry relative="1" as="geometry">
            <Array as="points">
              <mxPoint x="1240" y="800" />
              <mxPoint x="1540" y="800" />
            </Array>
          </mxGeometry>
        </mxCell>
        <mxCell id="8ejXN2J3b1ZB-9fexY2X-2" style="edgeStyle=orthogonalEdgeStyle;rounded=0;orthogonalLoop=1;jettySize=auto;html=1;entryX=0.5;entryY=0;entryDx=0;entryDy=0;" edge="1" parent="1" source="4eVBK96cGTDbWKvktmTu-23" target="8ejXN2J3b1ZB-9fexY2X-1">
          <mxGeometry relative="1" as="geometry" />
        </mxCell>
        <mxCell id="8ejXN2J3b1ZB-9fexY2X-5" style="edgeStyle=orthogonalEdgeStyle;rounded=0;orthogonalLoop=1;jettySize=auto;html=1;entryX=0.5;entryY=0;entryDx=0;entryDy=0;" edge="1" parent="1" source="4eVBK96cGTDbWKvktmTu-23" target="8ejXN2J3b1ZB-9fexY2X-4">
          <mxGeometry relative="1" as="geometry" />
        </mxCell>
        <mxCell id="4eVBK96cGTDbWKvktmTu-23" value="Trend Analysis" style="whiteSpace=wrap;html=1;rounded=0;fillColor=#0050ef;strokeColor=#001DBC;fontColor=#ffffff;" parent="1" vertex="1">
          <mxGeometry x="1180" y="730" width="120" height="60" as="geometry" />
        </mxCell>
        <mxCell id="4eVBK96cGTDbWKvktmTu-24" value="" style="edgeStyle=orthogonalEdgeStyle;rounded=0;orthogonalLoop=1;jettySize=auto;html=1;" parent="1" source="4eVBK96cGTDbWKvktmTu-26" target="4eVBK96cGTDbWKvktmTu-30" edge="1">
          <mxGeometry relative="1" as="geometry" />
        </mxCell>
        <mxCell id="4eVBK96cGTDbWKvktmTu-25" style="edgeStyle=orthogonalEdgeStyle;rounded=0;orthogonalLoop=1;jettySize=auto;html=1;entryX=1;entryY=0.5;entryDx=0;entryDy=0;jumpStyle=arc;jumpSize=10;" parent="1" source="4eVBK96cGTDbWKvktmTu-26" target="4eVBK96cGTDbWKvktmTu-77" edge="1">
          <mxGeometry relative="1" as="geometry">
            <Array as="points">
              <mxPoint x="1460" y="980" />
            </Array>
          </mxGeometry>
        </mxCell>
        <mxCell id="4eVBK96cGTDbWKvktmTu-26" value="Form: Gather relevant data&lt;div&gt;Assume defaults.&lt;/div&gt;" style="rounded=0;whiteSpace=wrap;html=1;" parent="1" vertex="1">
          <mxGeometry x="1350" y="730" width="120" height="60" as="geometry" />
        </mxCell>
        <mxCell id="4eVBK96cGTDbWKvktmTu-27" style="edgeStyle=orthogonalEdgeStyle;rounded=0;orthogonalLoop=1;jettySize=auto;html=1;entryX=0.5;entryY=0;entryDx=0;entryDy=0;" parent="1" source="4eVBK96cGTDbWKvktmTu-28" target="4eVBK96cGTDbWKvktmTu-23" edge="1">
          <mxGeometry relative="1" as="geometry" />
        </mxCell>
        <mxCell id="4eVBK96cGTDbWKvktmTu-28" value="Data Graphing on Website" style="rounded=0;whiteSpace=wrap;html=1;fillColor=#008a00;strokeColor=#005700;fontColor=#ffffff;" parent="1" vertex="1">
          <mxGeometry x="1180" y="400" width="120" height="60" as="geometry" />
        </mxCell>
        <mxCell id="4eVBK96cGTDbWKvktmTu-29" value="" style="edgeStyle=orthogonalEdgeStyle;rounded=0;orthogonalLoop=1;jettySize=auto;html=1;" parent="1" source="4eVBK96cGTDbWKvktmTu-30" target="4eVBK96cGTDbWKvktmTu-31" edge="1">
          <mxGeometry relative="1" as="geometry" />
        </mxCell>
        <mxCell id="4eVBK96cGTDbWKvktmTu-30" value="Determine when data outdated" style="whiteSpace=wrap;html=1;rounded=0;" parent="1" vertex="1">
          <mxGeometry x="1520" y="730" width="120" height="60" as="geometry" />
        </mxCell>
        <mxCell id="4eVBK96cGTDbWKvktmTu-31" value="Prompt incessantly to refresh to prevent inaccuracy." style="whiteSpace=wrap;html=1;rounded=0;" parent="1" vertex="1">
          <mxGeometry x="1670" y="730" width="120" height="60" as="geometry" />
        </mxCell>
        <mxCell id="4eVBK96cGTDbWKvktmTu-32" style="edgeStyle=orthogonalEdgeStyle;rounded=0;orthogonalLoop=1;jettySize=auto;html=1;entryX=0;entryY=0.5;entryDx=0;entryDy=0;" parent="1" source="4eVBK96cGTDbWKvktmTu-34" target="4eVBK96cGTDbWKvktmTu-35" edge="1">
          <mxGeometry relative="1" as="geometry" />
        </mxCell>
        <mxCell id="4eVBK96cGTDbWKvktmTu-33" style="edgeStyle=orthogonalEdgeStyle;rounded=0;orthogonalLoop=1;jettySize=auto;html=1;entryX=0;entryY=0.5;entryDx=0;entryDy=0;" parent="1" source="4eVBK96cGTDbWKvktmTu-34" target="4eVBK96cGTDbWKvktmTu-37" edge="1">
          <mxGeometry relative="1" as="geometry" />
        </mxCell>
        <mxCell id="4eVBK96cGTDbWKvktmTu-34" value="Notifications" style="rounded=0;whiteSpace=wrap;html=1;" parent="1" vertex="1">
          <mxGeometry x="1030" y="190" width="120" height="60" as="geometry" />
        </mxCell>
        <mxCell id="4eVBK96cGTDbWKvktmTu-35" value="Notify when its time to check your determined condition and apply new handling" style="whiteSpace=wrap;html=1;rounded=0;" parent="1" vertex="1">
          <mxGeometry x="1200" y="260" width="120" height="80" as="geometry" />
        </mxCell>
        <mxCell id="4eVBK96cGTDbWKvktmTu-36" value="" style="edgeStyle=orthogonalEdgeStyle;rounded=0;orthogonalLoop=1;jettySize=auto;html=1;" parent="1" source="4eVBK96cGTDbWKvktmTu-37" target="4eVBK96cGTDbWKvktmTu-40" edge="1">
          <mxGeometry relative="1" as="geometry" />
        </mxCell>
        <mxCell id="4eVBK96cGTDbWKvktmTu-37" value="Notify when its time to enter the data for the statistic" style="rounded=0;whiteSpace=wrap;html=1;fillColor=#0050ef;strokeColor=#001DBC;fontColor=#ffffff;" parent="1" vertex="1">
          <mxGeometry x="1200" y="170" width="120" height="60" as="geometry" />
        </mxCell>
        <mxCell id="4eVBK96cGTDbWKvktmTu-38" value="" style="edgeStyle=orthogonalEdgeStyle;rounded=0;orthogonalLoop=1;jettySize=auto;html=1;" parent="1" source="4eVBK96cGTDbWKvktmTu-40" target="4eVBK96cGTDbWKvktmTu-43" edge="1">
          <mxGeometry relative="1" as="geometry" />
        </mxCell>
        <mxCell id="4eVBK96cGTDbWKvktmTu-39" style="edgeStyle=orthogonalEdgeStyle;rounded=0;orthogonalLoop=1;jettySize=auto;html=1;entryX=0.5;entryY=0;entryDx=0;entryDy=0;" parent="1" source="4eVBK96cGTDbWKvktmTu-40" target="4eVBK96cGTDbWKvktmTu-45" edge="1">
          <mxGeometry relative="1" as="geometry" />
        </mxCell>
        <mxCell id="4eVBK96cGTDbWKvktmTu-40" value="Data Entry Backlog system" style="rounded=0;whiteSpace=wrap;html=1;" parent="1" vertex="1">
          <mxGeometry x="1370" y="170" width="120" height="60" as="geometry" />
        </mxCell>
        <mxCell id="4eVBK96cGTDbWKvktmTu-41" value="&lt;h1 style=&quot;margin-top: 0px;&quot;&gt;Backlog System&lt;/h1&gt;&lt;p&gt;When the user has failed to enter the data for each day the system knows they&#39;re meant to, it goes in the backlog. The backlog demands the data Incessantly, and won&#39;t compile a condition until theres no backlog&lt;/p&gt;" style="text;html=1;whiteSpace=wrap;overflow=hidden;rounded=0;" parent="1" vertex="1">
          <mxGeometry x="1680" y="260" width="220" height="160" as="geometry" />
        </mxCell>
        <mxCell id="4eVBK96cGTDbWKvktmTu-42" value="" style="edgeStyle=orthogonalEdgeStyle;rounded=0;orthogonalLoop=1;jettySize=auto;html=1;" parent="1" source="4eVBK96cGTDbWKvktmTu-43" target="4eVBK96cGTDbWKvktmTu-102" edge="1">
          <mxGeometry relative="1" as="geometry" />
        </mxCell>
        <mxCell id="4eVBK96cGTDbWKvktmTu-43" value="No analysis on backlog without critical warning" style="rounded=0;whiteSpace=wrap;html=1;" parent="1" vertex="1">
          <mxGeometry x="1370" y="270" width="120" height="60" as="geometry" />
        </mxCell>
        <mxCell id="4eVBK96cGTDbWKvktmTu-44" value="" style="edgeStyle=orthogonalEdgeStyle;rounded=0;orthogonalLoop=1;jettySize=auto;html=1;" parent="1" source="4eVBK96cGTDbWKvktmTu-45" target="4eVBK96cGTDbWKvktmTu-47" edge="1">
          <mxGeometry relative="1" as="geometry" />
        </mxCell>
        <mxCell id="4eVBK96cGTDbWKvktmTu-45" value="Manual data entry form by dates missed." style="rounded=0;whiteSpace=wrap;html=1;" parent="1" vertex="1">
          <mxGeometry x="1530" y="270" width="120" height="60" as="geometry" />
        </mxCell>
        <mxCell id="4eVBK96cGTDbWKvktmTu-46" value="&lt;h1 style=&quot;margin-top: 0px;&quot;&gt;Analysis&lt;/h1&gt;&lt;p&gt;We will analyze week-by-week at first. Later on, we will make it possible to analyze day-by-day&lt;/p&gt;" style="text;html=1;whiteSpace=wrap;overflow=hidden;rounded=0;" parent="1" vertex="1">
          <mxGeometry x="1020" y="290" width="170" height="90" as="geometry" />
        </mxCell>
        <mxCell id="4eVBK96cGTDbWKvktmTu-47" value="Allow to enter as &quot;Unknown&quot; for the day. Enters as 0" style="rounded=0;whiteSpace=wrap;html=1;" parent="1" vertex="1">
          <mxGeometry x="1530" y="370" width="120" height="60" as="geometry" />
        </mxCell>
        <mxCell id="4eVBK96cGTDbWKvktmTu-48" style="edgeStyle=orthogonalEdgeStyle;rounded=0;orthogonalLoop=1;jettySize=auto;html=1;entryX=1;entryY=0.5;entryDx=0;entryDy=0;" parent="1" source="4eVBK96cGTDbWKvktmTu-49" target="4eVBK96cGTDbWKvktmTu-52" edge="1">
          <mxGeometry relative="1" as="geometry" />
        </mxCell>
        <mxCell id="4eVBK96cGTDbWKvktmTu-49" value="On-boarding&lt;div&gt;WHEN NO ACCOUNTS EXIST.&lt;/div&gt;" style="rounded=0;whiteSpace=wrap;html=1;fillColor=#a20025;strokeColor=#6F0000;fontColor=#ffffff;" parent="1" vertex="1">
          <mxGeometry x="590" y="50" width="120" height="60" as="geometry" />
        </mxCell>
        <mxCell id="4eVBK96cGTDbWKvktmTu-50" value="" style="edgeStyle=orthogonalEdgeStyle;rounded=0;orthogonalLoop=1;jettySize=auto;html=1;" parent="1" edge="1">
          <mxGeometry relative="1" as="geometry">
            <mxPoint x="260" y="90" as="sourcePoint" />
          </mxGeometry>
        </mxCell>
        <mxCell id="4eVBK96cGTDbWKvktmTu-51" value="" style="edgeStyle=orthogonalEdgeStyle;rounded=0;orthogonalLoop=1;jettySize=auto;html=1;" parent="1" source="4eVBK96cGTDbWKvktmTu-52" target="4eVBK96cGTDbWKvktmTu-54" edge="1">
          <mxGeometry relative="1" as="geometry" />
        </mxCell>
        <mxCell id="4eVBK96cGTDbWKvktmTu-52" value="User creates their ADMIN Account" style="rounded=0;whiteSpace=wrap;html=1;fillColor=#a20025;strokeColor=#6F0000;fontColor=#ffffff;" parent="1" vertex="1">
          <mxGeometry x="290" y="50" width="120" height="60" as="geometry" />
        </mxCell>
        <mxCell id="4eVBK96cGTDbWKvktmTu-53" value="" style="edgeStyle=orthogonalEdgeStyle;rounded=0;orthogonalLoop=1;jettySize=auto;html=1;" parent="1" source="4eVBK96cGTDbWKvktmTu-54" target="4eVBK96cGTDbWKvktmTu-56" edge="1">
          <mxGeometry relative="1" as="geometry" />
        </mxCell>
        <mxCell id="4eVBK96cGTDbWKvktmTu-54" value="Ask user what new statistic they&#39;d like to create." style="rounded=0;whiteSpace=wrap;html=1;fillColor=#a20025;strokeColor=#6F0000;fontColor=#ffffff;" parent="1" vertex="1">
          <mxGeometry x="290" y="140" width="120" height="60" as="geometry" />
        </mxCell>
        <mxCell id="4eVBK96cGTDbWKvktmTu-55" value="" style="edgeStyle=orthogonalEdgeStyle;rounded=0;orthogonalLoop=1;jettySize=auto;html=1;" parent="1" source="4eVBK96cGTDbWKvktmTu-56" target="4eVBK96cGTDbWKvktmTu-97" edge="1">
          <mxGeometry relative="1" as="geometry" />
        </mxCell>
        <mxCell id="4eVBK96cGTDbWKvktmTu-56" value="Inform user we are not responsible for any damages or losses to anything related to your statistic, and that we are merely an advisory and graphing tool." style="whiteSpace=wrap;html=1;rounded=0;fillColor=#a20025;fontColor=#ffffff;strokeColor=#6F0000;" parent="1" vertex="1">
          <mxGeometry x="40" y="130" width="210" height="80" as="geometry" />
        </mxCell>
        <mxCell id="4eVBK96cGTDbWKvktmTu-57" value="" style="edgeStyle=orthogonalEdgeStyle;rounded=0;orthogonalLoop=1;jettySize=auto;html=1;" parent="1" source="4eVBK96cGTDbWKvktmTu-58" target="4eVBK96cGTDbWKvktmTu-61" edge="1">
          <mxGeometry relative="1" as="geometry" />
        </mxCell>
        <mxCell id="4eVBK96cGTDbWKvktmTu-58" value="On-boarding for regular users" style="rounded=0;whiteSpace=wrap;html=1;fillColor=#a20025;fontColor=#ffffff;strokeColor=#6F0000;" parent="1" vertex="1">
          <mxGeometry x="590" y="140" width="120" height="60" as="geometry" />
        </mxCell>
        <mxCell id="4eVBK96cGTDbWKvktmTu-59" value="" style="edgeStyle=orthogonalEdgeStyle;rounded=0;orthogonalLoop=1;jettySize=auto;html=1;" parent="1" source="4eVBK96cGTDbWKvktmTu-61" target="4eVBK96cGTDbWKvktmTu-54" edge="1">
          <mxGeometry relative="1" as="geometry" />
        </mxCell>
        <mxCell id="4eVBK96cGTDbWKvktmTu-60" value="" style="edgeStyle=orthogonalEdgeStyle;rounded=0;orthogonalLoop=1;jettySize=auto;html=1;" parent="1" source="4eVBK96cGTDbWKvktmTu-61" target="4eVBK96cGTDbWKvktmTu-63" edge="1">
          <mxGeometry relative="1" as="geometry" />
        </mxCell>
        <mxCell id="4eVBK96cGTDbWKvktmTu-61" value="Ask user if theres a pre-existing statistic they want to work with" style="rounded=0;whiteSpace=wrap;html=1;fillColor=#a20025;fontColor=#ffffff;strokeColor=#6F0000;" parent="1" vertex="1">
          <mxGeometry x="440" y="140" width="120" height="60" as="geometry" />
        </mxCell>
        <mxCell id="4eVBK96cGTDbWKvktmTu-62" style="edgeStyle=orthogonalEdgeStyle;rounded=0;orthogonalLoop=1;jettySize=auto;html=1;entryX=0.5;entryY=1;entryDx=0;entryDy=0;" parent="1" source="4eVBK96cGTDbWKvktmTu-63" target="4eVBK96cGTDbWKvktmTu-54" edge="1">
          <mxGeometry relative="1" as="geometry" />
        </mxCell>
        <mxCell id="4eVBK96cGTDbWKvktmTu-63" value="Skip to next if no stats exist or if select &quot;Create new stat&quot;" style="rounded=0;whiteSpace=wrap;html=1;fillColor=#a20025;fontColor=#ffffff;strokeColor=#6F0000;" parent="1" vertex="1">
          <mxGeometry x="440" y="220" width="120" height="60" as="geometry" />
        </mxCell>
        <mxCell id="4eVBK96cGTDbWKvktmTu-64" value="&lt;h1 style=&quot;margin-top: 0px;&quot;&gt;Pseudo-code&lt;/h1&gt;&lt;p&gt;This is a Pseudo-code roadmap.&lt;br&gt;It gives a basic summary of each feature, and how it interconnects with the rest of the system.&lt;span style=&quot;background-color: transparent; color: light-dark(rgb(0, 0, 0), rgb(255, 255, 255));&quot;&gt;&amp;nbsp;&lt;/span&gt;&lt;/p&gt;&lt;p&gt;&lt;span style=&quot;background-color: transparent; color: light-dark(rgb(0, 0, 0), rgb(255, 255, 255));&quot;&gt;This also includes comments and notes about the system and its workings.&lt;/span&gt;&lt;/p&gt;" style="text;html=1;whiteSpace=wrap;overflow=hidden;rounded=0;" parent="1" vertex="1">
          <mxGeometry x="810" y="130" width="160" height="200" as="geometry" />
        </mxCell>
        <mxCell id="4eVBK96cGTDbWKvktmTu-65" style="edgeStyle=orthogonalEdgeStyle;rounded=0;orthogonalLoop=1;jettySize=auto;html=1;entryX=0.5;entryY=0;entryDx=0;entryDy=0;" parent="1" source="4eVBK96cGTDbWKvktmTu-66" target="4eVBK96cGTDbWKvktmTu-77" edge="1">
          <mxGeometry relative="1" as="geometry">
            <Array as="points">
              <mxPoint x="940" y="930" />
              <mxPoint x="1240" y="930" />
            </Array>
          </mxGeometry>
        </mxCell>
        <mxCell id="4eVBK96cGTDbWKvktmTu-66" value="Danger Condition Detection" style="rounded=0;whiteSpace=wrap;html=1;fillColor=#0050ef;strokeColor=#001DBC;fontColor=#ffffff;" parent="1" vertex="1">
          <mxGeometry x="880" y="840" width="120" height="60" as="geometry" />
        </mxCell>
        <mxCell id="4eVBK96cGTDbWKvktmTu-67" style="edgeStyle=orthogonalEdgeStyle;rounded=0;orthogonalLoop=1;jettySize=auto;html=1;entryX=0.5;entryY=0;entryDx=0;entryDy=0;" parent="1" source="4eVBK96cGTDbWKvktmTu-68" target="4eVBK96cGTDbWKvktmTu-77" edge="1">
          <mxGeometry relative="1" as="geometry">
            <Array as="points">
              <mxPoint x="1090" y="930" />
              <mxPoint x="1240" y="930" />
            </Array>
          </mxGeometry>
        </mxCell>
        <mxCell id="4eVBK96cGTDbWKvktmTu-68" value="Emergency Condition Detection" style="rounded=0;whiteSpace=wrap;html=1;fillColor=#0050ef;strokeColor=#001DBC;fontColor=#ffffff;" parent="1" vertex="1">
          <mxGeometry x="1030" y="840" width="120" height="60" as="geometry" />
        </mxCell>
        <mxCell id="4eVBK96cGTDbWKvktmTu-69" style="edgeStyle=orthogonalEdgeStyle;rounded=0;orthogonalLoop=1;jettySize=auto;html=1;entryX=0.5;entryY=0;entryDx=0;entryDy=0;" parent="1" source="4eVBK96cGTDbWKvktmTu-70" target="4eVBK96cGTDbWKvktmTu-77" edge="1">
          <mxGeometry relative="1" as="geometry" />
        </mxCell>
        <mxCell id="4eVBK96cGTDbWKvktmTu-70" value="Normal Condition Detection" style="rounded=0;whiteSpace=wrap;html=1;fillColor=#0050ef;strokeColor=#001DBC;fontColor=#ffffff;" parent="1" vertex="1">
          <mxGeometry x="1180" y="840" width="120" height="60" as="geometry" />
        </mxCell>
        <mxCell id="4eVBK96cGTDbWKvktmTu-71" style="edgeStyle=orthogonalEdgeStyle;rounded=0;orthogonalLoop=1;jettySize=auto;html=1;entryX=0.5;entryY=0;entryDx=0;entryDy=0;" parent="1" source="4eVBK96cGTDbWKvktmTu-72" target="4eVBK96cGTDbWKvktmTu-77" edge="1">
          <mxGeometry relative="1" as="geometry">
            <Array as="points">
              <mxPoint x="1390" y="930" />
              <mxPoint x="1240" y="930" />
            </Array>
          </mxGeometry>
        </mxCell>
        <mxCell id="4eVBK96cGTDbWKvktmTu-72" value="Affluence Condition&lt;div&gt;Detection&lt;/div&gt;" style="rounded=0;whiteSpace=wrap;html=1;fillColor=#0050ef;strokeColor=#001DBC;fontColor=#ffffff;" parent="1" vertex="1">
          <mxGeometry x="1330" y="840" width="120" height="60" as="geometry" />
        </mxCell>
        <mxCell id="4eVBK96cGTDbWKvktmTu-73" style="edgeStyle=orthogonalEdgeStyle;rounded=0;orthogonalLoop=1;jettySize=auto;html=1;entryX=0.5;entryY=0;entryDx=0;entryDy=0;jumpStyle=arc;jumpSize=16;" parent="1" source="4eVBK96cGTDbWKvktmTu-74" target="4eVBK96cGTDbWKvktmTu-77" edge="1">
          <mxGeometry relative="1" as="geometry">
            <Array as="points">
              <mxPoint x="1540" y="930" />
              <mxPoint x="1240" y="930" />
            </Array>
          </mxGeometry>
        </mxCell>
        <mxCell id="4eVBK96cGTDbWKvktmTu-74" value="POWER condition detection" style="rounded=0;whiteSpace=wrap;html=1;fillColor=#0050ef;strokeColor=#001DBC;fontColor=#ffffff;" parent="1" vertex="1">
          <mxGeometry x="1480" y="840" width="120" height="60" as="geometry" />
        </mxCell>
        <mxCell id="4eVBK96cGTDbWKvktmTu-75" value="&lt;h1 style=&quot;margin-top: 0px;&quot;&gt;5 Conditions&lt;/h1&gt;&lt;p&gt;There are 5 Primary conditions for a statistic. These are, in order, Danger, Emergency, Normal, Affluence and Power.&lt;/p&gt;&lt;p&gt;Non-Existence is a condition in which you are not known at all, or people consider you are no longer responsible for something. The first is called New-Post-Formula, the latter is simply Non-Existence.&lt;/p&gt;&lt;p&gt;Danger is for when a stat is sharply down&lt;/p&gt;&lt;p&gt;Emergency is for when a stat is slightly down or level&lt;/p&gt;&lt;p&gt;Normal is for when a stat is even SLIGHTLY up.&lt;/p&gt;&lt;p&gt;&amp;nbsp;Affluence is for when a stat is Sharply up.&lt;/p&gt;&lt;p&gt;POWER is for when a statistic is in such a high average range for the number, that the incredibly high number becomes the new normal. In this state, slight momentary dips or stops in production that&#39;d normally be cause for a condition of emergency do not warrant that condition. This is the highest possible condition.&lt;/p&gt;&lt;p&gt;You can fall lower than danger, however, from there, you need a lot more than a statistics program. So we will not assist with these.&lt;/p&gt;&lt;p&gt;Such lower conditions include:&amp;nbsp;&lt;span style=&quot;background-color: transparent; color: light-dark(rgb(0, 0, 0), rgb(255, 255, 255));&quot;&gt;Liability, Doubt,&amp;nbsp;&lt;/span&gt;&lt;span style=&quot;background-color: transparent; color: light-dark(rgb(0, 0, 0), rgb(255, 255, 255));&quot;&gt;Treason, Enemy, Confusion.&lt;/span&gt;&lt;/p&gt;&lt;p&gt;This tech is owed to the book&lt;br&gt;&quot;Introduction to Scientology Ethics&quot;&lt;/p&gt;" style="text;html=1;whiteSpace=wrap;overflow=hidden;rounded=0;" parent="1" vertex="1">
          <mxGeometry x="1610" y="820" width="240" height="640" as="geometry" />
        </mxCell>
        <mxCell id="4eVBK96cGTDbWKvktmTu-76" value="" style="edgeStyle=orthogonalEdgeStyle;rounded=0;orthogonalLoop=1;jettySize=auto;html=1;" parent="1" source="4eVBK96cGTDbWKvktmTu-77" target="4eVBK96cGTDbWKvktmTu-93" edge="1">
          <mxGeometry relative="1" as="geometry" />
        </mxCell>
        <mxCell id="4eVBK96cGTDbWKvktmTu-77" value="Modify detection according to data available." style="rounded=0;whiteSpace=wrap;html=1;" parent="1" vertex="1">
          <mxGeometry x="1180" y="950" width="120" height="60" as="geometry" />
        </mxCell>
        <mxCell id="4eVBK96cGTDbWKvktmTu-78" value="" style="edgeStyle=orthogonalEdgeStyle;rounded=0;orthogonalLoop=1;jettySize=auto;html=1;" parent="1" source="4eVBK96cGTDbWKvktmTu-79" target="4eVBK96cGTDbWKvktmTu-82" edge="1">
          <mxGeometry relative="1" as="geometry" />
        </mxCell>
        <mxCell id="4eVBK96cGTDbWKvktmTu-79" value="Time Machine" style="rounded=0;whiteSpace=wrap;html=1;fillColor=#a20025;strokeColor=#6F0000;fontColor=#ffffff;" parent="1" vertex="1">
          <mxGeometry x="590" y="390" width="120" height="60" as="geometry" />
        </mxCell>
        <mxCell id="4eVBK96cGTDbWKvktmTu-80" value="" style="edgeStyle=orthogonalEdgeStyle;rounded=0;orthogonalLoop=1;jettySize=auto;html=1;" parent="1" source="4eVBK96cGTDbWKvktmTu-82" target="4eVBK96cGTDbWKvktmTu-84" edge="1">
          <mxGeometry relative="1" as="geometry" />
        </mxCell>
        <mxCell id="4eVBK96cGTDbWKvktmTu-81" value="" style="edgeStyle=orthogonalEdgeStyle;rounded=0;orthogonalLoop=1;jettySize=auto;html=1;" parent="1" source="4eVBK96cGTDbWKvktmTu-82" target="4eVBK96cGTDbWKvktmTu-103" edge="1">
          <mxGeometry relative="1" as="geometry" />
        </mxCell>
        <mxCell id="4eVBK96cGTDbWKvktmTu-82" value="Menu to analyze statistics over a large period of time" style="whiteSpace=wrap;html=1;rounded=0;fillColor=#a20025;strokeColor=#6F0000;fontColor=#ffffff;" parent="1" vertex="1">
          <mxGeometry x="420" y="390" width="120" height="60" as="geometry" />
        </mxCell>
        <mxCell id="4eVBK96cGTDbWKvktmTu-83" value="" style="edgeStyle=orthogonalEdgeStyle;rounded=0;orthogonalLoop=1;jettySize=auto;html=1;" parent="1" source="4eVBK96cGTDbWKvktmTu-84" target="4eVBK96cGTDbWKvktmTu-85" edge="1">
          <mxGeometry relative="1" as="geometry" />
        </mxCell>
        <mxCell id="4eVBK96cGTDbWKvktmTu-84" value="On the board, major events are noted." style="rounded=0;whiteSpace=wrap;html=1;fillColor=#a20025;strokeColor=#6F0000;fontColor=#ffffff;" parent="1" vertex="1">
          <mxGeometry x="240" y="390" width="120" height="60" as="geometry" />
        </mxCell>
        <mxCell id="4eVBK96cGTDbWKvktmTu-85" value="Ability to preview what&#39;d happen if ONE variable was changed in the analysis" style="rounded=0;whiteSpace=wrap;html=1;fillColor=#a20025;strokeColor=#6F0000;fontColor=#ffffff;" parent="1" vertex="1">
          <mxGeometry x="70" y="390" width="120" height="60" as="geometry" />
        </mxCell>
        <mxCell id="4eVBK96cGTDbWKvktmTu-86" value="&lt;h1 style=&quot;margin-top: 0px;&quot;&gt;Time Machine&lt;/h1&gt;&lt;p&gt;The Time Machine is a very low priority feature due to it just being a Cool idea, not a functional or useful one.&lt;/p&gt;" style="text;html=1;whiteSpace=wrap;overflow=hidden;rounded=0;" parent="1" vertex="1">
          <mxGeometry x="570" y="260" width="180" height="120" as="geometry" />
        </mxCell>
        <mxCell id="4eVBK96cGTDbWKvktmTu-87" value="Priority Legend" style="swimlane;fontStyle=0;childLayout=stackLayout;horizontal=1;startSize=30;horizontalStack=0;resizeParent=1;resizeParentMax=0;resizeLast=0;collapsible=1;marginBottom=0;whiteSpace=wrap;html=1;" parent="1" vertex="1">
          <mxGeometry x="820" y="355" width="140" height="150" as="geometry" />
        </mxCell>
        <mxCell id="4eVBK96cGTDbWKvktmTu-88" value="BLUE - High" style="text;strokeColor=none;fillColor=none;align=left;verticalAlign=middle;spacingLeft=4;spacingRight=4;overflow=hidden;points=[[0,0.5],[1,0.5]];portConstraint=eastwest;rotatable=0;whiteSpace=wrap;html=1;" parent="4eVBK96cGTDbWKvktmTu-87" vertex="1">
          <mxGeometry y="30" width="140" height="30" as="geometry" />
        </mxCell>
        <mxCell id="4eVBK96cGTDbWKvktmTu-89" value="WHITE - Average" style="text;strokeColor=none;fillColor=none;align=left;verticalAlign=middle;spacingLeft=4;spacingRight=4;overflow=hidden;points=[[0,0.5],[1,0.5]];portConstraint=eastwest;rotatable=0;whiteSpace=wrap;html=1;" parent="4eVBK96cGTDbWKvktmTu-87" vertex="1">
          <mxGeometry y="60" width="140" height="30" as="geometry" />
        </mxCell>
        <mxCell id="4eVBK96cGTDbWKvktmTu-108" value="RED - Low" style="text;strokeColor=none;fillColor=none;align=left;verticalAlign=middle;spacingLeft=4;spacingRight=4;overflow=hidden;points=[[0,0.5],[1,0.5]];portConstraint=eastwest;rotatable=0;whiteSpace=wrap;html=1;" parent="4eVBK96cGTDbWKvktmTu-87" vertex="1">
          <mxGeometry y="90" width="140" height="30" as="geometry" />
        </mxCell>
        <mxCell id="4eVBK96cGTDbWKvktmTu-90" value="GREEN - Completed" style="text;strokeColor=none;fillColor=none;align=left;verticalAlign=middle;spacingLeft=4;spacingRight=4;overflow=hidden;points=[[0,0.5],[1,0.5]];portConstraint=eastwest;rotatable=0;whiteSpace=wrap;html=1;" parent="4eVBK96cGTDbWKvktmTu-87" vertex="1">
          <mxGeometry y="120" width="140" height="30" as="geometry" />
        </mxCell>
        <mxCell id="4eVBK96cGTDbWKvktmTu-91" value="" style="edgeStyle=orthogonalEdgeStyle;rounded=0;orthogonalLoop=1;jettySize=auto;html=1;" parent="1" source="4eVBK96cGTDbWKvktmTu-93" target="4eVBK96cGTDbWKvktmTu-94" edge="1">
          <mxGeometry relative="1" as="geometry" />
        </mxCell>
        <mxCell id="4eVBK96cGTDbWKvktmTu-92" value="" style="edgeStyle=orthogonalEdgeStyle;rounded=0;orthogonalLoop=1;jettySize=auto;html=1;" parent="1" source="4eVBK96cGTDbWKvktmTu-93" target="4eVBK96cGTDbWKvktmTu-99" edge="1">
          <mxGeometry relative="1" as="geometry" />
        </mxCell>
        <mxCell id="4eVBK96cGTDbWKvktmTu-93" value="Advise correct handling to increase condition to next" style="rounded=0;whiteSpace=wrap;html=1;" parent="1" vertex="1">
          <mxGeometry x="1180" y="1050" width="120" height="60" as="geometry" />
        </mxCell>
        <mxCell id="4eVBK96cGTDbWKvktmTu-94" value="If Ollama is setup, use Ollama to advise how to increase the condition&amp;nbsp;" style="rounded=0;whiteSpace=wrap;html=1;" parent="1" vertex="1">
          <mxGeometry x="1180" y="1160" width="120" height="60" as="geometry" />
        </mxCell>
        <mxCell id="4eVBK96cGTDbWKvktmTu-95" value="&lt;h1 style=&quot;margin-top: 0px;&quot;&gt;Ollama&lt;/h1&gt;&lt;p&gt;Ollama is a tool to host your own AI.&lt;/p&gt;&lt;p&gt;If its setup, indoctrinate Ollama AI on how to increase conditions, and ask the user a series of questions to get an idea of how it&#39;d be done.&lt;/p&gt;&lt;p&gt;This feature would need to be Trial ran.&lt;/p&gt;" style="text;html=1;whiteSpace=wrap;overflow=hidden;rounded=0;" parent="1" vertex="1">
          <mxGeometry x="1340" y="1100" width="180" height="210" as="geometry" />
        </mxCell>
        <mxCell id="4eVBK96cGTDbWKvktmTu-96" value="" style="edgeStyle=orthogonalEdgeStyle;rounded=0;orthogonalLoop=1;jettySize=auto;html=1;" parent="1" source="4eVBK96cGTDbWKvktmTu-97" target="4eVBK96cGTDbWKvktmTu-98" edge="1">
          <mxGeometry relative="1" as="geometry" />
        </mxCell>
        <mxCell id="4eVBK96cGTDbWKvktmTu-97" value="Have them agree to the terms of service and other legal data" style="whiteSpace=wrap;html=1;rounded=0;fillColor=#a20025;fontColor=#ffffff;strokeColor=#6F0000;" parent="1" vertex="1">
          <mxGeometry x="85" y="240" width="120" height="60" as="geometry" />
        </mxCell>
        <mxCell id="4eVBK96cGTDbWKvktmTu-98" value="Inform users kindly of their responsibilities for accurate analysis" style="whiteSpace=wrap;html=1;rounded=0;fillColor=#a20025;fontColor=#ffffff;strokeColor=#6F0000;" parent="1" vertex="1">
          <mxGeometry x="250" y="280" width="120" height="60" as="geometry" />
        </mxCell>
        <mxCell id="4eVBK96cGTDbWKvktmTu-99" value="Button to reveal data resulting in this decision." style="rounded=0;whiteSpace=wrap;html=1;" parent="1" vertex="1">
          <mxGeometry x="1000" y="1050" width="120" height="60" as="geometry" />
        </mxCell>
        <mxCell id="4eVBK96cGTDbWKvktmTu-100" value="Button to download this weeks data as CSV" style="rounded=0;whiteSpace=wrap;html=1;" parent="1" vertex="1">
          <mxGeometry x="1030" y="490" width="120" height="60" as="geometry" />
        </mxCell>
        <mxCell id="4eVBK96cGTDbWKvktmTu-101" style="edgeStyle=orthogonalEdgeStyle;rounded=0;orthogonalLoop=1;jettySize=auto;html=1;entryX=1;entryY=0.25;entryDx=0;entryDy=0;" parent="1" source="4eVBK96cGTDbWKvktmTu-102" target="4eVBK96cGTDbWKvktmTu-23" edge="1">
          <mxGeometry relative="1" as="geometry" />
        </mxCell>
        <mxCell id="4eVBK96cGTDbWKvktmTu-102" value="To generate, user must acknowledge the result is likely inaccurate." style="whiteSpace=wrap;html=1;rounded=0;" parent="1" vertex="1">
          <mxGeometry x="1370" y="370" width="120" height="60" as="geometry" />
        </mxCell>
        <mxCell id="4eVBK96cGTDbWKvktmTu-103" value="Button to download data over specified time period" style="rounded=0;whiteSpace=wrap;html=1;fillColor=#a20025;strokeColor=#6F0000;fontColor=#ffffff;" parent="1" vertex="1">
          <mxGeometry x="420" y="490" width="120" height="60" as="geometry" />
        </mxCell>
        <mxCell id="4eVBK96cGTDbWKvktmTu-107" value="" style="edgeStyle=orthogonalEdgeStyle;rounded=0;orthogonalLoop=1;jettySize=auto;html=1;" parent="1" source="4eVBK96cGTDbWKvktmTu-105" target="4eVBK96cGTDbWKvktmTu-12" edge="1">
          <mxGeometry relative="1" as="geometry" />
        </mxCell>
        <mxCell id="4eVBK96cGTDbWKvktmTu-105" value="Custom Stat creation" style="rounded=0;whiteSpace=wrap;html=1;fillColor=#008a00;fontColor=#ffffff;strokeColor=#005700;" parent="1" vertex="1">
          <mxGeometry x="1200" y="50" width="120" height="60" as="geometry" />
        </mxCell>
        <mxCell id="8ejXN2J3b1ZB-9fexY2X-3" style="edgeStyle=orthogonalEdgeStyle;rounded=0;orthogonalLoop=1;jettySize=auto;html=1;entryX=0.5;entryY=0;entryDx=0;entryDy=0;" edge="1" parent="1" source="8ejXN2J3b1ZB-9fexY2X-1" target="4eVBK96cGTDbWKvktmTu-77">
          <mxGeometry relative="1" as="geometry">
            <Array as="points">
              <mxPoint x="790" y="930" />
              <mxPoint x="1240" y="930" />
            </Array>
          </mxGeometry>
        </mxCell>
        <mxCell id="8ejXN2J3b1ZB-9fexY2X-1" value="Non-Existence Condition Detection" style="rounded=0;whiteSpace=wrap;html=1;fillColor=#0050ef;strokeColor=#001DBC;fontColor=#ffffff;" vertex="1" parent="1">
          <mxGeometry x="730" y="840" width="120" height="60" as="geometry" />
        </mxCell>
        <mxCell id="8ejXN2J3b1ZB-9fexY2X-6" style="edgeStyle=orthogonalEdgeStyle;rounded=0;orthogonalLoop=1;jettySize=auto;html=1;entryX=0.5;entryY=0;entryDx=0;entryDy=0;" edge="1" parent="1" source="8ejXN2J3b1ZB-9fexY2X-4" target="4eVBK96cGTDbWKvktmTu-77">
          <mxGeometry relative="1" as="geometry">
            <Array as="points">
              <mxPoint x="640" y="930" />
              <mxPoint x="1240" y="930" />
            </Array>
          </mxGeometry>
        </mxCell>
        <mxCell id="8ejXN2J3b1ZB-9fexY2X-4" value="Non-Existence&lt;br&gt;new post formula condition detection" style="rounded=0;whiteSpace=wrap;html=1;fillColor=#0050ef;strokeColor=#001DBC;fontColor=#ffffff;" vertex="1" parent="1">
          <mxGeometry x="580" y="840" width="120" height="60" as="geometry" />
        </mxCell>
      </root>
    </mxGraphModel>
  </diagram>
</mxfile>
